<svg xmlns="http://www.w3.org/2000/svg" viewBox="0 0 318.05 99.34"><defs><style>.cls-1{fill:#172b53;}.cls-2{fill:#9ca73a;}</style></defs><g id="Camada_2" data-name="Camada 2"><g id="Camada_1-2" data-name="Camada 1"><path class="cls-1" d="M146.38,46a12.51,12.51,0,0,1-7.85,7.32,9.35,9.35,0,0,1-3.12.61,13.21,13.21,0,0,1-7.91-2.51v-.68A8.94,8.94,0,0,0,135,47.43a11.56,11.56,0,0,0,2.55-7.79q0-7.38-4.73-9.55a7.81,7.81,0,0,0-3.31-.68h-4.17V69.05a4.21,4.21,0,0,0,1.18,3,3.72,3.72,0,0,0,2.8,1.26h.82V74h-19v-.67H112a3.62,3.62,0,0,0,2.77-1.26,4.52,4.52,0,0,0,1.22-3V31.17a4.22,4.22,0,0,0-2.12-3.39,3.5,3.5,0,0,0-1.87-.54h-.81v-.68h20.82q11.28,0,14.45,7.79A16.57,16.57,0,0,1,146.38,46Z"/><path class="cls-1" d="M188.31,73.32h.56V74H169v-.67h.56a2.33,2.33,0,0,0,2-.92,3,3,0,0,0,.65-1.73,4.43,4.43,0,0,0-.31-1.62l-3-8.34H154.28L151,69.05a4.89,4.89,0,0,0-.31,1.66,3,3,0,0,0,.65,1.69,2.41,2.41,0,0,0,2.09.92h.5V74H140.63v-.67h.57a5.16,5.16,0,0,0,2.86-.95,7,7,0,0,0,2.37-2.85l14.4-35.44q2.92-6.7,3.11-8.87h.56L183,69.39a7.17,7.17,0,0,0,2.36,2.94A5.13,5.13,0,0,0,188.31,73.32Zm-33-15.45h12.47L161.76,41.2Z"/><path class="cls-1" d="M208.08,29.54h-2.87V69.05a4.24,4.24,0,0,0,2,3.72,3.83,3.83,0,0,0,2,.55H210V74H191.07v-.67h.81a3.72,3.72,0,0,0,3.42-2.11,5,5,0,0,0,.57-2.1V31.51a4.6,4.6,0,0,0-1.22-3,3.65,3.65,0,0,0-2.77-1.25h-.81v-.68h21.37a17.69,17.69,0,0,1,10.22,2.85,9.87,9.87,0,0,1,3.37,4,13,13,0,0,1,1.25,5.76,16.71,16.71,0,0,1-1,5.93,11.52,11.52,0,0,1-3.43,4.74,10.64,10.64,0,0,1-5.76,2.44q3.62,1.29,6.35,6,6.74,11.71,10,13.95a7.5,7.5,0,0,0,4.05,1.16V74h-6.11a21.69,21.69,0,0,1-8.85-1.59,12.75,12.75,0,0,1-5.8-5.45c-.75-1.31-1.7-3.29-2.87-5.93s-1.93-4.53-2.3-5.66c-1.12-2.71-2.54-4.22-4.24-4.54v-.68h1.93a7.45,7.45,0,0,0,5-1.83c1.43-1.22,2.4-3.2,2.9-6a14.51,14.51,0,0,0,.25-2.24q0-5.55-2.06-8a6.82,6.82,0,0,0-5.3-2.54Z"/><path class="cls-1" d="M238.18,73.32A3.64,3.64,0,0,0,241,72.06a4.51,4.51,0,0,0,1.21-3V31.51a4.54,4.54,0,0,0-1.21-3,3.67,3.67,0,0,0-2.78-1.25h-.81v-.68h18.95l-.06.68h-.75a3.76,3.76,0,0,0-2.81,1.25,4.28,4.28,0,0,0-1.18,3V71.08h8.17a10.83,10.83,0,0,0,7.63-2.85,17,17,0,0,0,4.58-8.06h.62L269.66,74H237.37v-.67Z"/><path class="cls-1" d="M317.49,73.32h.56V74H298.17v-.67h.56a2.31,2.31,0,0,0,2-.92,3,3,0,0,0,.66-1.73,4.65,4.65,0,0,0-.31-1.62L298,60.71H283.46l-3.24,8.34a4.89,4.89,0,0,0-.31,1.66,2.93,2.93,0,0,0,.65,1.69,2.4,2.4,0,0,0,2.09.92h.5V74H269.81v-.67h.56a5.19,5.19,0,0,0,2.87-.95,7.06,7.06,0,0,0,2.36-2.85L290,34.08q2.92-6.7,3.12-8.87h.56l18.51,44.18a7.1,7.1,0,0,0,2.37,2.94A5.08,5.08,0,0,0,317.49,73.32Zm-33-15.45H297l-6-16.67Z"/><polyline class="cls-1" points="23.76 85.92 29.03 73.78 12.84 73.78 12.84 25.59 55.17 25.59 68.34 0 46.54 12.33 0 12.33 0 86.05 23.76 85.92"/><polyline class="cls-2" points="73.51 13.42 68.24 25.56 84.43 25.56 84.43 73.75 42.09 73.75 28.93 99.34 50.73 87.01 97.27 87.01 97.27 13.29 73.51 13.42"/><path class="cls-1" d="M47.68,33.83h3.94V31.91a2,2,0,0,0-3.93.18Z"/><path class="cls-1" d="M53.18,32.91a1.11,1.11,0,0,1,1.14-1.13,1.16,1.16,0,0,1,1.15,1.16v.88H53.18Z"/><path class="cls-1" d="M43.86,32.91A1.11,1.11,0,0,1,45,31.78a1.16,1.16,0,0,1,1.15,1.16v.88H43.86Z"/><polygon class="cls-1" points="41.8 39.06 57.58 39.06 55.6 37.31 43.77 37.31 41.8 39.06"/><polygon class="cls-1" points="55.47 34.61 43.86 34.61 43.86 36.61 55.46 36.61 55.47 34.61"/><polygon class="cls-1" points="69.07 67.57 30.36 67.57 30.36 64.92 69.07 64.92 69.07 67.57 69.07 67.57"/><rect class="cls-1" x="28.77" y="62.09" width="41.84" height="2.04"/><path class="cls-1" d="M51.33,39.85H47.92a51.36,51.36,0,0,0-3,16.46c0,.48,0,1,0,1.5v3.43h9.29V57.81c0-.54,0-1,0-1.5A51.36,51.36,0,0,0,51.33,39.85Z"/><path class="cls-1" d="M58.2,39.85S69.07,48,68,61.24H64.2A25.87,25.87,0,0,0,56,39.85Z"/><path class="cls-1" d="M55.2,39.85a29.41,29.41,0,0,1,7.26,21v.43H56.37v-.67c0-.31,0-.93,0-1.21-.07-9.38-1.08-13.82-3.87-19.51Z"/><path class="cls-1" d="M41.07,39.85S30.2,48,31.29,61.24h3.78a25.91,25.91,0,0,1,8.2-21.39Z"/><path class="cls-1" d="M46.8,39.85C44,45.54,43,50,42.92,59.36c0,.28,0,.9,0,1.21v.67H36.81v-.43a29.45,29.45,0,0,1,7.26-21Z"/></g></g></svg>